<!-- icon666.com - MILLIONS vector ICONS FREE --><svg xmlns="http://www.w3.org/2000/svg" id="icons" viewBox="0 0 60 60"><path d="M14,13H28a3,3,0,0,0,0-6H14a3,3,0,0,0,0,6Zm0-4H28a1,1,0,0,1,0,2H14a1,1,0,0,1,0-2Z"></path><path d="M59.139,33.449a4.209,4.209,0,0,0-1.631-3.936,2.2,2.2,0,0,1-.806-1.207A4.211,4.211,0,0,0,53.69,25.3a2.218,2.218,0,0,1-1.2-.806,4.191,4.191,0,0,0-3.938-1.631,2.231,2.231,0,0,1-1.424-.285,4.217,4.217,0,0,0-4.255,0,2.2,2.2,0,0,1-.87.281V8.41A1.977,1.977,0,0,0,41.417,7L35,.583A1.977,1.977,0,0,0,33.59,0H3A3,3,0,0,0,0,3V53a3,3,0,0,0,3,3H32.585a2.241,2.241,0,0,0,2.235,1.861h2.616l1.472,1.474A2.319,2.319,0,0,0,40.532,60a2.4,2.4,0,0,0,.429-.04,2.3,2.3,0,0,0,1.67-1.315L45,53.422l2.367,5.217a2.3,2.3,0,0,0,1.672,1.321,2.337,2.337,0,0,0,2.058-.631l1.467-1.468H55.18a2.29,2.29,0,0,0,2.106-3.19l-2.749-6.3A4.2,4.2,0,0,0,56.7,45.69a2.218,2.218,0,0,1,.806-1.2,4.212,4.212,0,0,0,1.631-3.938,2.263,2.263,0,0,1,.284-1.425h0a4.212,4.212,0,0,0,0-4.255A2.221,2.221,0,0,1,59.139,33.449ZM35,3.413,38.589,7H36a1,1,0,0,1-1-1ZM33.006,54H3a1,1,0,0,1-1-1V3A1,1,0,0,1,3,2L33,2V6a3,3,0,0,0,3,3h4V22.921a4.207,4.207,0,0,0-2.487,1.571,2.2,2.2,0,0,1-1.207.806A4.211,4.211,0,0,0,33.3,28.31a2.218,2.218,0,0,1-.806,1.2,4.212,4.212,0,0,0-1.631,3.938,2.215,2.215,0,0,1-.285,1.424,4.212,4.212,0,0,0,0,4.255,2.221,2.221,0,0,1,.281,1.421,4.209,4.209,0,0,0,1.631,3.936,2.2,2.2,0,0,1,.806,1.207A4.2,4.2,0,0,0,35.46,48.37Zm7.8,3.824a.288.288,0,0,1-.217.17.305.305,0,0,1-.273-.079l-1.508-1.509a1.871,1.871,0,0,0-1.319-.545H34.82a.289.289,0,0,1-.244-.132.269.269,0,0,1-.029-.258l2.719-6.238a2.154,2.154,0,0,1,.247.275,4.189,4.189,0,0,0,3.938,1.631,2.219,2.219,0,0,1,1.424.285,4.257,4.257,0,0,0,.692.315Zm14.642-2.362a.274.274,0,0,1-.025.267.289.289,0,0,1-.244.132H52.51a1.87,1.87,0,0,0-1.317.543l-1.5,1.5a.308.308,0,0,1-.278.085.289.289,0,0,1-.219-.176l-2.758-6.08a4.238,4.238,0,0,0,.7-.318,2.239,2.239,0,0,1,1.421-.281,4.2,4.2,0,0,0,3.936-1.631,2.19,2.19,0,0,1,.245-.273ZM57.7,38.113l0,.009a4.232,4.232,0,0,0-.535,2.7,2.211,2.211,0,0,1-.856,2.065,4.229,4.229,0,0,0-1.536,2.3,2.213,2.213,0,0,1-1.58,1.579,4.207,4.207,0,0,0-2.3,1.535,2.235,2.235,0,0,1-2.065.855,4.241,4.241,0,0,0-2.713.539,2.2,2.2,0,0,1-2.235,0,4.226,4.226,0,0,0-2.13-.575,4.274,4.274,0,0,0-.575.04,2.226,2.226,0,0,1-2.065-.856,4.229,4.229,0,0,0-2.3-1.536,2.213,2.213,0,0,1-1.579-1.58,4.207,4.207,0,0,0-1.535-2.3,2.208,2.208,0,0,1-.855-2.065,4.24,4.24,0,0,0-.539-2.713,2.2,2.2,0,0,1,0-2.235,4.232,4.232,0,0,0,.535-2.7,2.211,2.211,0,0,1,.856-2.065,4.229,4.229,0,0,0,1.536-2.3,2.213,2.213,0,0,1,1.58-1.579,4.207,4.207,0,0,0,2.3-1.535,2.233,2.233,0,0,1,2.065-.855,4.249,4.249,0,0,0,2.713-.539,2.2,2.2,0,0,1,2.235,0,4.225,4.225,0,0,0,2.7.535,2.221,2.221,0,0,1,2.065.856,4.229,4.229,0,0,0,2.3,1.536,2.213,2.213,0,0,1,1.579,1.58,4.207,4.207,0,0,0,1.535,2.3,2.208,2.208,0,0,1,.855,2.065,4.24,4.24,0,0,0,.539,2.713A2.2,2.2,0,0,1,57.7,38.113Z"></path><path d="M45,27A10,10,0,1,0,55,37,10.011,10.011,0,0,0,45,27Zm0,18a8,8,0,1,1,8-8A8.009,8.009,0,0,1,45,45Z"></path><path d="M7,19H35a1,1,0,0,0,0-2H7a1,1,0,0,0,0,2Z"></path><path d="M7,24H33a1,1,0,0,0,0-2H7a1,1,0,0,0,0,2Z"></path><path d="M29,27H22a1,1,0,0,0,0,2h7a1,1,0,0,0,0-2Z"></path><path d="M7,29H18a1,1,0,0,0,0-2H7a1,1,0,0,0,0,2Z"></path><path d="M13,33a1,1,0,0,0,1,1H27a1,1,0,0,0,0-2H14A1,1,0,0,0,13,33Z"></path><path d="M7,34h3a1,1,0,0,0,0-2H7a1,1,0,0,0,0,2Z"></path><path d="M7,39H27a1,1,0,0,0,0-2H7a1,1,0,0,0,0,2Z"></path><path d="M28,42H7a1,1,0,0,0,0,2H28a1,1,0,0,0,0-2Z"></path><path d="M18,47H7a1,1,0,0,0,0,2H18a1,1,0,0,0,0-2Z"></path><path d="M47.293,34.293,43,38.586l-.293-.293a1,1,0,0,0-1.414,1.414l1,1a1,1,0,0,0,1.414,0l5-5a1,1,0,0,0-1.414-1.414Z"></path></svg>