<!-- icon666.com - MILLIONS vector ICONS FREE --><svg xmlns="http://www.w3.org/2000/svg" xmlns:xlink="http://www.w3.org/1999/xlink" viewBox="0 0 128 128"><defs><linearGradient id="a" x1="109.392" y1="101.592" x2="18.608" y2="10.808" gradientUnits="userSpaceOnUse"><stop offset="0" stop-color="#00b7f0"></stop><stop offset="1" stop-color="#fb3d80"></stop></linearGradient></defs><path d="M76.92,48.042a1.75,1.75,0,0,1,0-3.5h.953a1.75,1.75,0,0,1,0,3.5ZM92.439,54.1h-7.3a8.976,8.976,0,0,0-8.966,8.966V77.488a4.627,4.627,0,1,0,9.254,0v-2.67h6.727v2.67a4.627,4.627,0,1,0,9.254,0,1.75,1.75,0,0,0-3.5,0,1.127,1.127,0,1,1-2.254,0v-4.42a1.75,1.75,0,0,0-1.75-1.75H83.674a1.751,1.751,0,0,0-1.75,1.75v4.42a1.127,1.127,0,1,1-2.254,0V63.063A5.473,5.473,0,0,1,85.136,57.6h7.3a5.472,5.472,0,0,1,5.466,5.466,1.75,1.75,0,1,0,3.5,0A8.976,8.976,0,0,0,92.439,54.1Zm7.216,13.919a1.75,1.75,0,0,0-1.75,1.75v.7a1.75,1.75,0,0,0,3.5,0v-.7A1.749,1.749,0,0,0,99.655,68.016Zm-7.216-8.164a3.215,3.215,0,0,1,3.212,3.211v4.25a1.749,1.749,0,0,1-1.75,1.75H83.674a1.75,1.75,0,0,1-1.75-1.75v-4.25a3.215,3.215,0,0,1,3.212-3.211Zm-.288,3.5H85.424v2.211h6.727ZM8.75,50.878a1.75,1.75,0,0,0,1.75-1.75V48.106a1.75,1.75,0,0,0-3.5,0v1.022A1.75,1.75,0,0,0,8.75,50.878ZM7,66.108a1.75,1.75,0,0,0,1.75,1.75H56.575v37a1.75,1.75,0,0,0,3.262.881l8.58-14.729H119.25A1.75,1.75,0,0,0,121,89.26V46.292a1.75,1.75,0,0,0-1.75-1.75H85.021a1.75,1.75,0,1,0,0,3.5H117.5V87.51H67.411a1.749,1.749,0,0,0-1.512.869l-5.824,10V68.7l8.088,13.886a1.75,1.75,0,0,0,3.262-.881V23.142a1.75,1.75,0,0,0-1.75-1.75H8.75A1.75,1.75,0,0,0,7,23.142V40.574a1.75,1.75,0,0,0,3.5,0V24.892H67.925V75.227l-5.824-10a1.748,1.748,0,0,0-1.512-.87H10.5V56.026a1.75,1.75,0,0,0-3.5,0ZM27.682,36.657a1.749,1.749,0,0,0-1.75,1.75V48.493A8.976,8.976,0,0,0,34.9,57.46h7.3a8.8,8.8,0,0,0,1.8-.189l.589.589a4.627,4.627,0,0,0,6.543-6.545l-.328-.328a8.846,8.846,0,0,0,.357-2.494V38.407A8.977,8.977,0,0,0,42.2,29.44H34.9a8.94,8.94,0,0,0-4.652,1.3,1.749,1.749,0,1,0,1.82,2.988A5.45,5.45,0,0,1,34.9,32.94h7.3a5.474,5.474,0,0,1,5.466,5.467V48.493a5.43,5.43,0,0,1-.48,2.228,1.749,1.749,0,0,0,.359,1.952l1.118,1.118a1.129,1.129,0,0,1,0,1.593,1.153,1.153,0,0,1-1.595,0l-1.3-1.3a1.757,1.757,0,0,0-1.8-.419,5.431,5.431,0,0,1-1.759.3H34.9a5.472,5.472,0,0,1-5.465-5.467V38.407A1.75,1.75,0,0,0,27.682,36.657ZM40.827,47.549a1.125,1.125,0,0,0-.136,1.425,1.749,1.749,0,0,1-1.448,2.731H34.9a3.214,3.214,0,0,1-3.211-3.212V38.407A3.215,3.215,0,0,1,34.9,35.2h7.3a3.216,3.216,0,0,1,3.212,3.212v7.907a1.75,1.75,0,0,1-2.8,1.4,1.905,1.905,0,0,1-.192-.166A1.154,1.154,0,0,0,40.827,47.549Zm1.086-3.82V38.7H35.186v9.51H37a4.622,4.622,0,0,1,4.912-4.476Z" fill="url(#a)"></path></svg>